<svg width="11" height="27" viewBox="0 0 11 27" fill="none" xmlns="http://www.w3.org/2000/svg">
<g clip-path="url(#clip0_203_3)">
<path d="M5.059 5.90005C5.64265 5.90005 6.2132 5.72698 6.69849 5.40272C7.18378 5.07846 7.56201 4.61757 7.78537 4.07835C8.00872 3.53912 8.06716 2.94577 7.9533 2.37334C7.83943 1.8009 7.55838 1.27508 7.14567 0.862376C6.73297 0.449671 6.20715 0.168616 5.63471 0.0547509C5.06227 -0.0591141 4.46893 -0.00067462 3.9297 0.22268C3.39048 0.446034 2.92959 0.824271 2.60533 1.30956C2.28107 1.79485 2.108 2.3654 2.108 2.94905C2.10708 3.33684 2.18278 3.72099 2.33075 4.07944C2.47873 4.43789 2.69606 4.76357 2.97027 5.03778C3.24448 5.31199 3.57016 5.52932 3.92861 5.6773C4.28706 5.82527 4.67121 5.90097 5.059 5.90005ZM8.432 26.98V18.55H10.118V10.962C10.1154 10.0683 9.75915 9.21188 9.12716 8.57989C8.49517 7.9479 7.63876 7.59169 6.745 7.58905H3.373C2.47924 7.59169 1.62283 7.9479 0.990843 8.57989C0.358854 9.21188 0.00263805 10.0683 0 10.962V18.55H1.686V26.982L8.432 26.98Z" fill="#1E6FB0"/>
</g>
<defs>
<clipPath id="clip0_203_3">
<rect width="10.118" height="26.982" fill="white"/>
</clipPath>
</defs>
</svg>
