<svg width="14" height="27" viewBox="0 0 14 27" fill="none" xmlns="http://www.w3.org/2000/svg">
<g clip-path="url(#clip0_203_6)">
<path d="M6.746 5.90005C7.32965 5.90005 7.9002 5.72698 8.38549 5.40272C8.87078 5.07846 9.24901 4.61757 9.47237 4.07835C9.69572 3.53912 9.75416 2.94577 9.6403 2.37334C9.52643 1.8009 9.24538 1.27508 8.83267 0.862376C8.41997 0.449671 7.89415 0.168616 7.32171 0.0547509C6.74927 -0.0591141 6.15593 -0.00067462 5.6167 0.22268C5.07748 0.446034 4.61659 0.824271 4.29233 1.30956C3.96807 1.79485 3.795 2.3654 3.795 2.94905C3.79408 3.33684 3.86978 3.72099 4.01775 4.07944C4.16573 4.43789 4.38306 4.76357 4.65727 5.03778C4.93148 5.31199 5.25716 5.52932 5.61561 5.6773C5.97406 5.82527 6.35821 5.90097 6.746 5.90005ZM10.119 20.234V26.98H3.373V20.237H0L4.014 9.47805C4.22348 8.92285 4.59714 8.44466 5.08521 8.10716C5.57329 7.76965 6.1526 7.58886 6.746 7.58886C7.3394 7.58886 7.91871 7.76965 8.40679 8.10716C8.89486 8.44466 9.26852 8.92285 9.478 9.47805L13.492 20.237L10.119 20.234Z" fill="#1E6FB0"/>
</g>
<defs>
<clipPath id="clip0_203_6">
<rect width="13.491" height="26.982" fill="white"/>
</clipPath>
</defs>
</svg>
