<svg xmlns="http://www.w3.org/2000/svg" width="72.992" height="52.17" viewBox="0 0 72.992 52.17">
  <g id="Group_1947" data-name="Group 1947" transform="translate(0 0.001)">
    <g id="Group_1926" data-name="Group 1926" transform="translate(64.012 16.132)">
      <path id="Path_42322" data-name="Path 42322" d="M454.831,186.195H449.9a2.067,2.067,0,0,0-.888.2q.051.818.052,1.65v4.085a10.342,10.342,0,0,1,1.737,1.921h4.031a2.1,2.1,0,0,0,2.09-2.09v-3.678A2.1,2.1,0,0,0,454.831,186.195Z" transform="translate(-449.011 -186.195)" fill="#e9eaef"/>
    </g>
    <g id="Group_1927" data-name="Group 1927" transform="translate(64.013 16.132)">
      <path id="Path_42323" data-name="Path 42323" d="M452.412,191.962v-3.678a2.1,2.1,0,0,1,2.09-2.09h-4.6a2.067,2.067,0,0,0-.888.2q.051.818.052,1.65v4.085a10.346,10.346,0,0,1,1.737,1.921h3.7A2.1,2.1,0,0,1,452.412,191.962Z" transform="translate(-449.012 -186.194)" fill="#b2c9e9"/>
      <path id="Path_42324" data-name="Path 42324" d="M449.373,227.839h0Z" transform="translate(-449.321 -221.902)" fill="#b2c9e9"/>
    </g>
    <g id="Group_1928" data-name="Group 1928" transform="translate(1.068 16.132)">
      <path id="Path_42325" data-name="Path 42325" d="M14.228,192.131v-4.085c0-.623.024-1.241.067-1.852H9.584a2.1,2.1,0,0,0-2.09,2.09v3.678a2.1,2.1,0,0,0,2.09,2.09h2.907A10.353,10.353,0,0,1,14.228,192.131Z" transform="translate(-7.494 -186.194)" fill="#e9eaef"/>
    </g>
    <path id="Path_42326" data-name="Path 42326" d="M10.894,191.962v-3.678a2.1,2.1,0,0,1,2.09-2.09h-3.4a2.1,2.1,0,0,0-2.09,2.09v3.678a2.1,2.1,0,0,0,2.09,2.09h2.907l.037-.052A2.1,2.1,0,0,1,10.894,191.962Z" transform="translate(-6.426 -170.062)" fill="#b2c9e9"/>
    <g id="Group_1929" data-name="Group 1929" transform="translate(7.517 1.107)">
      <path id="Path_42327" data-name="Path 42327" d="M59.372,99.452h43.541a10.114,10.114,0,0,1,6.645,2.5v-4.12A22.91,22.91,0,0,0,106.6,86.142c-2.079-3.443-4.929-5.339-8.024-5.339H63.71c-3.1,0-5.944,1.9-8.024,5.339a22.911,22.911,0,0,0-2.961,11.687v4.12A10.115,10.115,0,0,1,59.372,99.452Z" transform="translate(-52.726 -80.803)" fill="#b2c9e9"/>
    </g>
    <g id="Group_1930" data-name="Group 1930" transform="translate(7.517 1.107)">
      <path id="Path_42328" data-name="Path 42328" d="M57.311,97.829a22.91,22.91,0,0,1,2.961-11.687C62.351,82.7,65.2,80.8,68.3,80.8H63.711c-3.1,0-5.944,1.9-8.024,5.339a22.91,22.91,0,0,0-2.961,11.687v4.12a10.178,10.178,0,0,1,4.584-2.282Z" transform="translate(-52.727 -80.803)" fill="#87a8d6"/>
    </g>
    <g id="Group_1931" data-name="Group 1931" transform="translate(11.115 4.737)">
      <path id="Path_42329" data-name="Path 42329" d="M81.012,121.281h43.541a10.055,10.055,0,0,1,3.048.471v-2.095a19.234,19.234,0,0,0-2.436-9.8c-1.4-2.32-3.159-3.6-4.951-3.6H85.35c-1.792,0-3.55,1.278-4.951,3.6a19.234,19.234,0,0,0-2.436,9.8v2.095a10.053,10.053,0,0,1,3.048-.471Z" transform="translate(-77.964 -106.261)" fill="#e9eaef"/>
    </g>
    <g id="Group_1932" data-name="Group 1932" transform="translate(11.115 4.737)">
      <path id="Path_42330" data-name="Path 42330" d="M82.547,119.657a19.233,19.233,0,0,1,2.436-9.8c1.4-2.32,3.159-3.6,4.951-3.6H85.349c-1.792,0-3.55,1.278-4.951,3.6a19.234,19.234,0,0,0-2.436,9.8v2.095a10.054,10.054,0,0,1,3.048-.471h1.537v-1.623Z" transform="translate(-77.963 -106.261)" fill="#b2c9e9"/>
    </g>
    <path id="Path_42331" data-name="Path 42331" d="M294.632,148.059a7.959,7.959,0,0,0-7.924,7.993,8.136,8.136,0,0,0,.072,1.068h3.608a4.456,4.456,0,0,1-.13-1.068,4.373,4.373,0,1,1,8.747,0,4.458,4.458,0,0,1-.13,1.068h3.608a8.121,8.121,0,0,0,.072-1.068A7.959,7.959,0,0,0,294.632,148.059Z" transform="translate(-245.835 -137.364)" fill="#23a8fe"/>
    <path id="Path_42332" data-name="Path 42332" d="M294.632,148.059a7.959,7.959,0,0,0-7.924,7.993,8.136,8.136,0,0,0,.072,1.068h3.608a4.456,4.456,0,0,1-.13-1.068,4.373,4.373,0,1,1,8.747,0,4.458,4.458,0,0,1-.13,1.068h3.608a8.121,8.121,0,0,0,.072-1.068A7.959,7.959,0,0,0,294.632,148.059Z" transform="translate(-245.835 -137.364)" fill="#f4136b"/>
    <g id="Group_1933" data-name="Group 1933" transform="translate(40.874 10.695)">
      <path id="Path_42333" data-name="Path 42333" d="M290.69,154.141a7.969,7.969,0,0,1,5.818-5.855,7.869,7.869,0,0,0-1.876-.227,7.959,7.959,0,0,0-7.924,7.993,8.136,8.136,0,0,0,.072,1.068h3.608a4.456,4.456,0,0,1,.3-2.979Z" transform="translate(-286.709 -148.059)" fill="#f4136b"/>
    </g>
    <path id="Path_42334" data-name="Path 42334" d="M81.423,210.476H37.882a10.249,10.249,0,0,0-10.219,10.219v10.451a1.708,1.708,0,0,1,.475-.068h23.8a1.725,1.725,0,0,1,1.382-.7H65.988a1.725,1.725,0,0,1,1.382.7h23.8a1.708,1.708,0,0,1,.475.068V220.695a10.248,10.248,0,0,0-10.218-10.219Z" transform="translate(-23.719 -190.882)" fill="#f3f8ff"/>
    <g id="Group_1934" data-name="Group 1934" transform="translate(3.944 19.593)">
      <path id="Path_42335" data-name="Path 42335" d="M34.373,220.694a10.249,10.249,0,0,1,10.218-10.219H37.882a10.248,10.248,0,0,0-10.218,10.219v10.451a1.709,1.709,0,0,1,.475-.068h6.235V220.694Z" transform="translate(-27.664 -210.475)" fill="#b2c9e9"/>
    </g>
    <path id="Path_42336" data-name="Path 42336" d="M159.566,220.453a5.447,5.447,0,0,0,4.644-2.6l4.523-7.378H135.5l4.523,7.378a5.447,5.447,0,0,0,4.644,2.6Z" transform="translate(-116.183 -190.882)" fill="#d4e3f8"/>
    <path id="Path_42337" data-name="Path 42337" d="M146.19,217.853l-4.523-7.378H135.5l4.523,7.378a5.447,5.447,0,0,0,4.644,2.6h6.166A5.447,5.447,0,0,1,146.19,217.853Z" transform="translate(-116.184 -190.882)" fill="#b2c9e9"/>
    <ellipse id="Ellipse_1881" data-name="Ellipse 1881" cx="4.168" cy="4.168" rx="4.168" ry="4.168" transform="translate(53.497 25.678)" fill="#f4136b"/>
    <ellipse id="Ellipse_1882" data-name="Ellipse 1882" cx="4.168" cy="4.168" rx="4.168" ry="4.168" transform="translate(8.984 25.678)" fill="#f4136b"/>
    <path id="Path_42338" data-name="Path 42338" d="M386.749,257.323a4.165,4.165,0,0,1,2.1-3.618,4.168,4.168,0,1,0,0,7.237A4.166,4.166,0,0,1,386.749,257.323Z" transform="translate(-328.068 -227.477)" fill="#f4136b"/>
    <path id="Path_42339" data-name="Path 42339" d="M67.149,257.323a4.165,4.165,0,0,1,2.1-3.618,4.168,4.168,0,1,0,0,7.237A4.166,4.166,0,0,1,67.149,257.323Z" transform="translate(-54.032 -227.477)" fill="#f4136b"/>
    <g id="Group_1935" data-name="Group 1935" transform="translate(52.988 44.45)">
      <path id="Path_42340" data-name="Path 42340" d="M371.685,384.836v4.571a2.123,2.123,0,0,0,2.117,2.116h9.366a2.123,2.123,0,0,0,2.116-2.116v-4.571Z" transform="translate(-371.685 -384.836)" fill="#f4136b"/>
    </g>
    <path id="Path_42341" data-name="Path 42341" d="M377.92,389.407v-4.571h-6.235v4.571a2.123,2.123,0,0,0,2.117,2.116h6.235A2.122,2.122,0,0,1,377.92,389.407Z" transform="translate(-318.696 -340.386)" fill="#f4136b"/>
    <g id="Group_1936" data-name="Group 1936" transform="translate(5.279 44.45)">
      <path id="Path_42342" data-name="Path 42342" d="M37.028,384.836v4.571a2.123,2.123,0,0,0,2.116,2.116H48.51a2.123,2.123,0,0,0,2.116-2.116v-4.571Z" transform="translate(-37.028 -384.836)" fill="#f4136b"/>
    </g>
    <path id="Path_42343" data-name="Path 42343" d="M43.263,389.407v-4.571H37.028v4.571a2.123,2.123,0,0,0,2.116,2.116h6.235A2.123,2.123,0,0,1,43.263,389.407Z" transform="translate(-31.749 -340.386)" fill="#f4136b"/>
    <path id="Path_42344" data-name="Path 42344" d="M44.2,354.352v-3.338a1.713,1.713,0,0,1,.345-1.029H20.607a1.732,1.732,0,0,0-1.727,1.727v1.943a1.732,1.732,0,0,0,1.727,1.727H44.546A1.715,1.715,0,0,1,44.2,354.352Z" transform="translate(-16.188 -310.503)" fill="#b2c9e9"/>
    <path id="Path_42345" data-name="Path 42345" d="M25.115,353.654v-1.942a1.732,1.732,0,0,1,1.727-1.727H20.607a1.732,1.732,0,0,0-1.727,1.727v1.942a1.732,1.732,0,0,0,1.727,1.727h6.235A1.732,1.732,0,0,1,25.115,353.654Z" transform="translate(-16.188 -310.503)" fill="#87a8d6"/>
    <path id="Path_42346" data-name="Path 42346" d="M329.127,349.984H305.188a1.712,1.712,0,0,1,.345,1.029v3.338a1.713,1.713,0,0,1-.345,1.029h23.939a1.732,1.732,0,0,0,1.727-1.727v-1.943a1.732,1.732,0,0,0-1.727-1.727Z" transform="translate(-261.679 -310.502)" fill="#b2c9e9"/>
    <path id="Path_42347" data-name="Path 42347" d="M207.747,351.883H194.22a1.732,1.732,0,0,1-1.727-1.727v-3.338a1.732,1.732,0,0,1,1.727-1.727h13.527a1.732,1.732,0,0,1,1.727,1.727v3.338A1.732,1.732,0,0,1,207.747,351.883Z" transform="translate(-165.051 -306.307)" fill="#f3f8ff"/>
    <path id="Path_42348" data-name="Path 42348" d="M198.729,350.156v-3.338a1.732,1.732,0,0,1,1.727-1.727h-6.235a1.732,1.732,0,0,0-1.727,1.727v3.338a1.732,1.732,0,0,0,1.727,1.727h6.235A1.732,1.732,0,0,1,198.729,350.156Z" transform="translate(-165.051 -306.307)" fill="#d4e3f8"/>
    <g id="Group_1938" data-name="Group 1938" transform="translate(0 -0.001)">
      <path id="Path_42349" data-name="Path 42349" d="M69.833,88.053H65.26c-.77-7.159-4.865-15.025-11.895-15.025H18.5c-3.482,0-6.656,2.062-8.937,5.805a22.453,22.453,0,0,0-2.958,9.22H3.159A3.163,3.163,0,0,0,0,91.212V94.89a3.163,3.163,0,0,0,3.159,3.159h.769A11.217,11.217,0,0,0,2.875,102.8v9.068A2.8,2.8,0,0,0,1.623,114.2v1.943a2.8,2.8,0,0,0,2.587,2.786v3.085A3.189,3.189,0,0,0,7.4,125.2h9.366a3.189,3.189,0,0,0,3.186-3.186v-3.074h7.381a2.781,2.781,0,0,0,1.842.7H42.7a2.781,2.781,0,0,0,1.842-.7H51.92v3.074a3.189,3.189,0,0,0,3.186,3.186h9.366a3.189,3.189,0,0,0,3.186-3.186v-3.085a2.8,2.8,0,0,0,2.587-2.786V114.2a2.8,2.8,0,0,0-1.252-2.329v-3.577a1.069,1.069,0,0,0-2.138,0v3.11H44.539a2.809,2.809,0,0,0-1.842-.7H29.17a2.812,2.812,0,0,0-1.842.7H5.014v-8.6a9.183,9.183,0,0,1,9.149-9.149h4.556l4.21,6.868a6.558,6.558,0,0,0,5.556,3.111h14.9a6.558,6.558,0,0,0,5.556-3.111l4.21-6.868H57.7a9.183,9.183,0,0,1,9.149,9.149v.5a1.069,1.069,0,0,0,2.138,0,11.583,11.583,0,0,0-1.053-5.254h1.894a3.163,3.163,0,0,0,3.159-3.159V91.212A3.163,3.163,0,0,0,69.833,88.053ZM3.159,95.911A1.022,1.022,0,0,1,2.138,94.89V91.212a1.022,1.022,0,0,1,1.021-1.021h3.3c-.007.26-.012.521-.012.783v3.6a11.376,11.376,0,0,0-1.216,1.338Zm14.65,26.1a1.048,1.048,0,0,1-1.047,1.047H7.4a1.048,1.048,0,0,1-1.047-1.047v-3.074h11.46Zm47.71,0a1.049,1.049,0,0,1-1.047,1.047H55.106a1.049,1.049,0,0,1-1.047-1.047v-3.074h11.46Zm1.929-8.47a.623.623,0,0,1,.11.012l.044.01a.667.667,0,0,1,.5.636v1.943a.666.666,0,0,1-.658.658H45.494v-3.258Zm-24.751-.7a.669.669,0,0,1,.658.658v3.338a.67.67,0,0,1-.658.658H29.17a.67.67,0,0,1-.658-.658V113.5a.669.669,0,0,1,.658-.658H42.7Zm-16.324.7V116.8H4.419a.666.666,0,0,1-.658-.658V114.2a.667.667,0,0,1,.5-.636l.045-.01a.622.622,0,0,1,.11-.011H26.374ZM12.185,91.69v-.715a17.861,17.861,0,0,1,2.279-9.157c1.2-1.969,2.634-3.053,4.038-3.053H34a1.069,1.069,0,1,0,0-2.138H18.5c-2.179,0-4.261,1.449-5.864,4.079a20.012,20.012,0,0,0-2.592,10.27V92.3a11.227,11.227,0,0,0-1.459.7V90.975a21.617,21.617,0,0,1,2.8-11.029c1.878-3.082,4.4-4.779,7.11-4.779H53.366c2.708,0,5.233,1.7,7.11,4.779a21.571,21.571,0,0,1,2.8,11.029v2.019a11.234,11.234,0,0,0-1.459-.7V90.975a20.01,20.01,0,0,0-2.592-10.27c-1.6-2.631-3.685-4.079-5.864-4.079H38.991a1.069,1.069,0,1,0,0,2.138H53.366c1.4,0,2.838,1.084,4.038,3.053a17.861,17.861,0,0,1,2.279,9.157v.715a11.648,11.648,0,0,0-1.892-.174,8.992,8.992,0,0,0-17.985,0H14.163a11.76,11.76,0,0,0-1.978.175ZM47.115,99.4a4.405,4.405,0,0,1-3.732,2.09h-14.9a4.405,4.405,0,0,1-3.732-2.09l-3.525-5.75H50.64Zm-1.621-7.889a3.3,3.3,0,0,1,6.608,0Zm8.746,0a5.442,5.442,0,0,0-10.885,0H41.944a6.854,6.854,0,0,1,13.709,0ZM70.854,94.89a1.022,1.022,0,0,1-1.021,1.021h-3.2a11.384,11.384,0,0,0-1.216-1.338v-3.6c0-.259,0-.521-.011-.783h4.425a1.022,1.022,0,0,1,1.021,1.021V94.89Z" transform="translate(0 -73.028)" fill="#050402"/>
      <path id="Path_42350" data-name="Path 42350" d="M186.32,300.85a1.069,1.069,0,1,0,0,2.138H203.23a1.069,1.069,0,0,0,0-2.138Z" transform="translate(-158.841 -268.371)" fill="#050402"/>
      <path id="Path_42351" data-name="Path 42351" d="M380.358,245.381a5.237,5.237,0,1,0,5.237,5.237A5.243,5.243,0,0,0,380.358,245.381Zm0,8.336a3.1,3.1,0,1,1,3.1-3.1A3.1,3.1,0,0,1,380.358,253.717Z" transform="translate(-321.643 -220.81)" fill="#050402"/>
      <path id="Path_42352" data-name="Path 42352" d="M55.521,250.618a5.237,5.237,0,1,0,5.237-5.237A5.243,5.243,0,0,0,55.521,250.618Zm8.336,0a3.1,3.1,0,1,1-3.1-3.1A3.1,3.1,0,0,1,63.857,250.618Z" transform="translate(-47.606 -220.81)" fill="#050402"/>
    </g>
  </g>
</svg>
