<svg xmlns="http://www.w3.org/2000/svg" width="64.034" height="79.328" viewBox="0 0 64.034 79.328">
  <g id="Group_4555" data-name="Group 4555" transform="translate(3643.201 18681)">
    <path id="Path_43347" data-name="Path 43347" d="M193.011,28.237h-.556a4.327,4.327,0,1,0,0,8.655h.495a18.549,18.549,0,0,0,36.1,0h.495a4.327,4.327,0,0,0,0-8.655h-.556a18.681,18.681,0,0,0-8.469-11.5,13.153,13.153,0,0,1-6.429-11.127v-.8h-6.182v.742a19.065,19.065,0,0,0,2.04,8.531A18.6,18.6,0,0,0,193.01,28.237Zm27.262,4.327a9.273,9.273,0,1,1-18.545,0Z" transform="translate(-3822.252 -18685.807)" fill="#f4136b"/>
    <path id="Path_43348" data-name="Path 43348" d="M168.17,309.15a27.807,27.807,0,0,1-24.48-14.589l-5.44,2.967a33.833,33.833,0,0,0,14.466,14.095v19.72h30.909v-19.72a34.206,34.206,0,0,0,14.589-14.28l-5.44-2.905a27.849,27.849,0,0,1-24.6,14.712Zm9.273,16.011h-6.182v-6.182h6.182Z" transform="translate(-3779.422 -18934.514)" fill="#d4e3f8" stroke="#1d1d1d" stroke-width="3"/>
  </g>
</svg>
