<svg xmlns="http://www.w3.org/2000/svg" width="53.644" height="73.832" viewBox="0 0 53.644 73.832">
  <g id="Group_1945" data-name="Group 1945" transform="translate(0 -0.001)">
    <path id="Path_42368" data-name="Path 42368" d="M139.481,268.347a11.56,11.56,0,0,0,11.56-11.56v-10.5l-42.54-.372v10.876a11.56,11.56,0,0,0,11.56,11.56Z" transform="translate(-102.949 -210.449)" fill="#f3f8ff"/>
    <path id="Path_42369" data-name="Path 42369" d="M309.217,248.49v10.5a11.56,11.56,0,0,1-11.561,11.561H293.33a11.56,11.56,0,0,0,11.561-11.561v-10.5Z" transform="translate(-261.126 -212.656)" fill="#d4e3f8"/>
    <path id="Path_42370" data-name="Path 42370" d="M89.036,392.5A11.536,11.536,0,0,0,77.5,404.036v1.73a2.884,2.884,0,0,0,2.884,2.884H126.1a2.884,2.884,0,0,0,2.884-2.884v-1.73A11.536,11.536,0,0,0,117.445,392.5v11.32h-29.2Z" transform="translate(-76.419 -335.899)" fill="#f4136b"/>
    <path id="Path_42371" data-name="Path 42371" d="M366.036,404.036v1.73a2.883,2.883,0,0,1-2.884,2.884h-4.326a2.883,2.883,0,0,0,2.884-2.884v-1.73a11.54,11.54,0,0,0-7.21-10.7V392.5A11.537,11.537,0,0,1,366.036,404.036Z" transform="translate(-313.473 -335.899)" fill="#f4136b"/>
    <g id="Group_1940" data-name="Group 1940" transform="translate(3.1 28.625)">
      <path id="Path_42372" data-name="Path 42372" d="M185.908,340.3H178.7a.721.721,0,0,1-.721-.721V331.5H165.431v8.075a.721.721,0,0,1-.721.721H157.5v10.238h26.966Z" transform="translate(-147.983 -312.321)" fill="#fff"/>
      <path id="Path_42373" data-name="Path 42373" d="M101.162,207.3H95.9a4.4,4.4,0,1,1,0-8.8h5.263Z" transform="translate(-91.5 -198.5)" fill="#d4e3f8"/>
      <path id="Path_42374" data-name="Path 42374" d="M363.5,207.3h3.821a4.4,4.4,0,0,0,0-8.8H363.5Z" transform="translate(-324.276 -198.5)" fill="#d4e3f8"/>
    </g>
    <path id="Path_42375" data-name="Path 42375" d="M138.5,138.5v14.637a16.944,16.944,0,0,0,33.888,0V138.5Z" transform="translate(-128.622 -118.527)" fill="#fff"/>
    <path id="Path_42376" data-name="Path 42376" d="M260.107,138.5v14.637A16.956,16.956,0,0,1,241,169.944a16.951,16.951,0,0,0,14.781-16.807V138.5Z" transform="translate(-216.341 -118.527)" fill="#f3f8ff"/>
    <path id="Path_42377" data-name="Path 42377" d="M232.466,429.5a3.966,3.966,0,0,0-3.966,3.966v.361h7.931v-.361A3.966,3.966,0,0,0,232.466,429.5Z" transform="translate(-205.644 -367.564)" fill="#d1d1d2"/>
    <path id="Path_42378" data-name="Path 42378" d="M181.177,429.5a3.677,3.677,0,0,0-3.677,3.677v.649h7.354v-.649A3.677,3.677,0,0,0,181.177,429.5Z" transform="translate(-161.999 -367.564)" fill="#d1d1d2"/>
    <path id="Path_42379" data-name="Path 42379" d="M287.177,429.5a3.677,3.677,0,0,0-3.677,3.677v.649h7.354v-.649A3.677,3.677,0,0,0,287.177,429.5Z" transform="translate(-252.713 -367.564)" fill="#d1d1d2"/>
    <path id="Path_42380" data-name="Path 42380" d="M151.04,50.77v3.555a4.365,4.365,0,0,0-1.947-.454h-4.542a2.164,2.164,0,0,1-2.163-2.163V50.193a.721.721,0,0,0-.721-.721h-7.5a4.328,4.328,0,0,1-4.326-4.326,4.326,4.326,0,0,1-4.326,4.326h-7.643a.721.721,0,0,0-.721.721v1.514a2.164,2.164,0,0,1-2.163,2.163h-4.542a4.365,4.365,0,0,0-1.947.454V50.77a21.27,21.27,0,0,1,42.54,0Z" transform="translate(-102.948 -25.246)" fill="#f3f8ff"/>
    <path id="Path_42381" data-name="Path 42381" d="M264.433,50.77v3.555a4.364,4.364,0,0,0-1.947-.454h-2.379v-3.1A21.273,21.273,0,0,0,241,29.608c.711-.071,1.433-.108,2.163-.108A21.27,21.27,0,0,1,264.433,50.77Z" transform="translate(-216.341 -25.246)" fill="#d4e3f8"/>
    <path id="Path_42382" data-name="Path 42382" d="M168.118,393.075v15.576H132.5V393.075a11.51,11.51,0,0,1,3.605-.575h2.884v9.662h22.64V392.5h2.884A11.511,11.511,0,0,1,168.118,393.075Z" transform="translate(-123.488 -335.899)" fill="#d4e3f8"/>
    <path id="Path_42384" data-name="Path 42384" d="M187.424,10.384a3.8,3.8,0,0,0-2.382.834,3.82,3.82,0,0,0-6.919-2.13,3.82,3.82,0,0,0-6.919,2.13,3.82,3.82,0,0,0-6.2,2.987q0,.1,0,.2a3.453,3.453,0,0,0,5.23,2.713,14.5,14.5,0,0,1,15.775,0,3.453,3.453,0,0,0,5.23-2.713q.005-.1.005-.2A3.821,3.821,0,0,0,187.424,10.384Z" transform="translate(-151.3 -6.418)" fill="#f4136b"/>
    <path id="Path_42385" data-name="Path 42385" d="M268.459,10.9a3.819,3.819,0,0,0-4.3.317A3.815,3.815,0,0,0,262.5,8.172a4.047,4.047,0,0,1,.4-.238,3.818,3.818,0,0,1,5.563,2.968Z" transform="translate(-234.741 -6.418)" fill="#f4136b"/>
    <path id="Path_42386" data-name="Path 42386" d="M311.493,31.321c0,.066,0,.131,0,.2a3.453,3.453,0,0,1-5.23,2.714q-.2-.121-.407-.234a3.286,3.286,0,0,0,1.311-2.48c0-.065,0-.13,0-.2a3.814,3.814,0,0,0-1.657-3.149,3.819,3.819,0,0,1,5.983,3.149Z" transform="translate(-271.549 -23.534)" fill="#f4136b"/>
    <g id="Group_1942" data-name="Group 1942" transform="translate(0 0.001)">
      <path id="Path_42387" data-name="Path 42387" d="M224.378,278.243a1.081,1.081,0,0,0-1.524-.131,6.985,6.985,0,0,1-9.154,0,1.082,1.082,0,1,0-1.4,1.649,9.117,9.117,0,0,0,11.947,0A1.081,1.081,0,0,0,224.378,278.243Z" transform="translate(-191.453 -237.79)"/>
      <path id="Path_42388" data-name="Path 42388" d="M309.082,225.826a1.081,1.081,0,0,0,1.082-1.082v-2.163a1.082,1.082,0,0,0-2.163,0v2.163A1.082,1.082,0,0,0,309.082,225.826Z" transform="translate(-273.679 -189.559)"/>
      <path id="Path_42389" data-name="Path 42389" d="M190.082,221.5A1.081,1.081,0,0,0,189,222.582v2.163a1.082,1.082,0,1,0,2.163,0v-2.163A1.081,1.081,0,0,0,190.082,221.5Z" transform="translate(-171.84 -189.559)"/>
      <path id="Path_42390" data-name="Path 42390" d="M114.63,56.043a12.662,12.662,0,0,0,4.544-9.706V37.587a5.474,5.474,0,0,0,0-9.128V25.524A22.253,22.253,0,0,0,111,8.248c.007-.07.014-.139.017-.21s.006-.167.006-.251A4.905,4.905,0,0,0,104.5,3.158a4.9,4.9,0,0,0-7.682-2.053A4.9,4.9,0,0,0,89.14,3.158a4.905,4.905,0,0,0-6.522,4.629c0,.084,0,.168.006.251s.011.14.017.21A22.238,22.238,0,0,0,74.47,25.524v2.935a5.474,5.474,0,0,0,0,9.13c0,.016,0,.032,0,.049V41.29a1.082,1.082,0,0,0,2.163,0V38.433a5.485,5.485,0,0,0,.865.069h1.723A18.1,18.1,0,0,0,89.468,51.065v4.454h-6.85a1.365,1.365,0,0,1-.744-.1,10.52,10.52,0,0,1-5.24-9.078,1.082,1.082,0,0,0-2.163,0,12.691,12.691,0,0,0,4.545,9.706A12.64,12.64,0,0,0,70,68.136v1.73a3.97,3.97,0,0,0,3.966,3.966h29.129a1.082,1.082,0,0,0,0-2.163h-23V57.991a10.434,10.434,0,0,1,2.524-.31h1.8v8.58A1.081,1.081,0,0,0,85.5,67.343h22.64a1.081,1.081,0,0,0,1.082-1.082v-8.58h1.8a10.441,10.441,0,0,1,2.524.31V71.669h-5.408a1.082,1.082,0,1,0,0,2.163h11.536a3.97,3.97,0,0,0,3.966-3.966v-1.73A12.64,12.64,0,0,0,114.63,56.043Zm-36.7,15.626H73.966a1.8,1.8,0,0,1-1.8-1.8v-1.73A10.465,10.465,0,0,1,77.931,58.8Zm38.214-35.33h-1.381c.055-.57.084-1.147.084-1.73v-.5h1.37a1.082,1.082,0,0,0,0-2.163h-1.37V29.706h1.3a3.317,3.317,0,1,1,0,6.633ZM87.521,5.047a2.711,2.711,0,0,1,1.11.234,1.8,1.8,0,0,0,1.5-.013,1.783,1.783,0,0,0,.962-1.124A2.739,2.739,0,0,1,95.6,2.906a1.792,1.792,0,0,0,2.451,0,2.739,2.739,0,0,1,4.507,1.239,1.784,1.784,0,0,0,.962,1.124,1.805,1.805,0,0,0,1.5.013,2.715,2.715,0,0,1,1.11-.234,2.743,2.743,0,0,1,2.74,2.74q0,.071,0,.142a2.231,2.231,0,0,1-1.207,1.883,2.418,2.418,0,0,1-2.393-.046,15.571,15.571,0,0,0-16.876,0,2.417,2.417,0,0,1-2.393.046,2.231,2.231,0,0,1-1.207-1.883c0-.047,0-.094,0-.142A2.743,2.743,0,0,1,87.521,5.047ZM76.633,25.524A20.079,20.079,0,0,1,83.452,10.4a4.485,4.485,0,0,0,1.516,1.32,4.564,4.564,0,0,0,4.518-.09,13.382,13.382,0,0,1,14.673,0,4.563,4.563,0,0,0,4.518.09,4.486,4.486,0,0,0,1.515-1.319,20.092,20.092,0,0,1,6.819,15.126v2.088a5.485,5.485,0,0,0-.865-.069H111.6a1.083,1.083,0,0,1-1.082-1.082V24.947a1.8,1.8,0,0,0-1.8-1.8h-7.5A3.248,3.248,0,0,1,97.976,19.9a1.082,1.082,0,1,0-2.163,0,3.248,3.248,0,0,1-3.245,3.245H84.925a1.8,1.8,0,0,0-1.8,1.8v1.514a1.083,1.083,0,0,1-1.082,1.082H77.5a5.5,5.5,0,0,0-.865.069ZM77.5,36.339a3.317,3.317,0,0,1,0-6.633h1.3v2.235h-1.37a1.082,1.082,0,0,0,0,2.163H78.8v.5c0,.584.029,1.161.083,1.73Zm3.461-1.73v-4.9h1.082a3.248,3.248,0,0,0,3.245-3.245V25.308h7.282a5.4,5.4,0,0,0,4.326-2.166,5.4,5.4,0,0,0,4.326,2.166h7.138v1.154a3.248,3.248,0,0,0,3.245,3.245h1.082v4.9a15.862,15.862,0,0,1-31.725,0ZM86.623,65.18a2.592,2.592,0,0,1,5.113,0Zm7.41,0a2.88,2.88,0,0,1,5.578,0Zm7.875,0a2.592,2.592,0,0,1,5.113,0Zm5.152-3.553a4.748,4.748,0,0,0-6.347,1.063,5.041,5.041,0,0,0-7.782,0,4.748,4.748,0,0,0-6.347-1.063V57.681h3.245a1.8,1.8,0,0,0,1.8-1.8V51.871a18.039,18.039,0,0,0,10.383,0v4.008a1.8,1.8,0,0,0,1.8,1.8h3.245Zm-2.884-6.109V51.065A18.1,18.1,0,0,0,114.423,38.5h1.723a5.5,5.5,0,0,0,.865-.069v7.9a10.5,10.5,0,0,1-5.371,9.152.92.92,0,0,1-.283.042C111.175,55.523,104.176,55.518,104.176,55.518Zm17.3,14.348a1.8,1.8,0,0,1-1.8,1.8h-3.966V58.8a10.464,10.464,0,0,1,5.768,9.341Z" transform="translate(-70 0)"/>
    </g>
  </g>
</svg>
