<svg xmlns="http://www.w3.org/2000/svg" width="73.557" height="72.663" viewBox="0 0 73.557 72.663">
  <g id="Group_1944" data-name="Group 1944" transform="translate(0 -0.001)">
    <path id="Path_42391" data-name="Path 42391" d="M120.164,51.482V93.227H65.4V51.482L92.935,24.769Z" transform="translate(-56.002 -21.657)" fill="#f3f8ff"/>
    <path id="Path_42392" data-name="Path 42392" d="M353.334,62.156V54.445h13.692V75.2" transform="translate(-302.572 -47.07)" fill="#f4136b"/>
    <g id="Group_1943" data-name="Group 1943" transform="translate(1.093 62.822)">
      <rect id="Rectangle_4957" data-name="Rectangle 4957" width="33.064" height="8.748" transform="translate(38.308)" fill="#f4136b"/>
      <rect id="Rectangle_4958" data-name="Rectangle 4958" width="11.591" height="8.748" fill="#f4136b"/>
    </g>
    <path id="Path_42393" data-name="Path 42393" d="M120.164,66.969v7.8L92.78,48.626,65.4,74.772v-7.8L90.606,42.96l2.175-2.02,2.173,2.02Z" transform="translate(-56.002 -35.505)" fill="#d4e3f8"/>
    <path id="Path_42394" data-name="Path 42394" d="M44.174,18.4,13,48.167l-4.36-3.66L42,12.733l2.174-2.019,2.174,2.019L79.712,44.507l-4.36,3.66Z" transform="translate(-7.396 -9.621)" fill="#d4e3f8"/>
    <rect id="Rectangle_4959" data-name="Rectangle 4959" width="18.061" height="31.277" transform="translate(16.095 40.293)" fill="#d4e3f8"/>
    <rect id="Rectangle_4960" data-name="Rectangle 4960" width="20.568" height="18.061" transform="translate(39.4 40.293)" fill="#d4e3f8"/>
    <rect id="Rectangle_4961" data-name="Rectangle 4961" width="20.568" height="5.488" transform="translate(39.4 40.293)" fill="#b2c9e9"/>
    <path id="Path_42411" data-name="Path 42411" d="M5.025,0A5.025,5.025,0,1,1,0,5.025,5.025,5.025,0,0,1,5.025,0Z" transform="translate(31.69 22.351)" fill="#f4136b"/>
    <path id="Path_42395" data-name="Path 42395" d="M266.649,277.066v18.061a1.092,1.092,0,0,0,1.092,1.092h20.568a1.092,1.092,0,0,0,1.092-1.092V277.066a1.092,1.092,0,0,0-1.092-1.092H267.741A1.092,1.092,0,0,0,266.649,277.066Zm2.185,16.969V283.647h18.383v10.388Zm18.383-15.876v3.3H268.834v-3.3Z" transform="translate(-228.341 -236.773)"/>
    <path id="Path_42396" data-name="Path 42396" d="M72.464,64.84h-7.21V40.587L67.2,42.446a1.092,1.092,0,0,0,1.457.047l4.336-3.639a1.143,1.143,0,0,0,.337-.453,1.094,1.094,0,0,0-.262-1.195L65.546,30.04V19.7a1.093,1.093,0,0,0-1.092-1.092h0A1.093,1.093,0,0,0,63.361,19.7v8.26L51.854,17V11.578H63.361V14.6a1.093,1.093,0,0,0,1.092,1.092h0A1.093,1.093,0,0,0,65.546,14.6V10.485a1.093,1.093,0,0,0-1.092-1.092H50.762a1.093,1.093,0,0,0-1.092,1.092V14.92L39.7,5.422,37.522,3.4a1.093,1.093,0,0,0-1.487,0L33.851,5.431.487,37.2A1.094,1.094,0,0,0,.225,38.4a1.144,1.144,0,0,0,.337.453L4.9,42.492a1.093,1.093,0,0,0,1.457-.047L8.3,40.586v7.15A1.093,1.093,0,0,0,9.4,48.828h0a1.093,1.093,0,0,0,1.092-1.092V38.5l26.29-25.1L63.07,38.5V64.84H39.4a1.093,1.093,0,0,0-1.092,1.092v7.655H35.249V43.4a1.093,1.093,0,0,0-1.092-1.092H16.1A1.093,1.093,0,0,0,15,43.4V73.588H13.775V65.933a1.093,1.093,0,0,0-1.092-1.092h-2.2V52.834A1.093,1.093,0,0,0,9.4,51.742h0A1.093,1.093,0,0,0,8.3,52.834V64.84H1.092A1.093,1.093,0,0,0,0,65.933V74.68a1.093,1.093,0,0,0,1.092,1.092H72.464a1.093,1.093,0,0,0,1.092-1.092V65.933A1.092,1.092,0,0,0,72.464,64.84ZM36.778,10.8a1.09,1.09,0,0,0-.754.3L5.554,40.19,2.879,37.944,35.348,7.022l1.43-1.329,1.42,1.32L70.678,37.944,68,40.19,37.533,11.1A1.09,1.09,0,0,0,36.778,10.8ZM2.185,67.025h9.406v6.563H2.185Zm15,6.563V44.5H33.065V73.588Zm54.184,0H40.493V67.025H71.372v6.563Z" transform="translate(0 -3.11)"/>
    <path id="Path_42397" data-name="Path 42397" d="M190.842,384.129H188.22a1.092,1.092,0,1,0,0,2.185h2.622a1.092,1.092,0,0,0,0-2.185Z" transform="translate(-160.244 -329.389)"/>
    <path id="Path_42398" data-name="Path 42398" d="M219.54,143.856a6.117,6.117,0,1,0,6.117,6.117A6.124,6.124,0,0,0,219.54,143.856Zm0,10.05a3.932,3.932,0,1,1,3.932-3.932A3.937,3.937,0,0,1,219.54,153.906Z" transform="translate(-182.762 -123.635)"/>
  </g>
</svg>
