<svg xmlns="http://www.w3.org/2000/svg" width="41" height="41" viewBox="0 0 41 41">
  <g id="Group_4337" data-name="Group 4337" transform="translate(-87 -455)">
    <circle id="Ellipse_1972" data-name="Ellipse 1972" cx="20.5" cy="20.5" r="20.5" transform="translate(87 455)" fill="#f4136b"/>
    <g id="favorite_black_24dp" transform="translate(96 464)">
      <path id="Path_43209" data-name="Path 43209" d="M0,0H24V24H0Z" fill="none"/>
      <path id="Path_43210" data-name="Path 43210" d="M12,21.35l-1.45-1.32C5.4,15.36,2,12.28,2,8.5A5.447,5.447,0,0,1,7.5,3,5.988,5.988,0,0,1,12,5.09,5.988,5.988,0,0,1,16.5,3,5.447,5.447,0,0,1,22,8.5c0,3.78-3.4,6.86-8.55,11.54Z" fill="#f9faff"/>
    </g>
  </g>
</svg>
