<svg xmlns="http://www.w3.org/2000/svg" width="73.68" height="74.98" viewBox="0 0 73.68 74.98">
  <g id="Group_4523" data-name="Group 4523" transform="translate(-2654.753 17106.982)">
    <path id="Path_43330" data-name="Path 43330" d="M151.55,368.754l16.024,16.52,5.822-5.794-16.131-16.617Z" transform="translate(2504.597 -17418.699)" fill="#f4136b" stroke="#000" stroke-width="2"/>
    <path id="Path_43339" data-name="Path 43339" d="M285.916,82.055l2.93,3.477a5.425,5.425,0,0,1,1.017,1.883h17.948a5.17,5.17,0,0,1,1.017-1.883l2.946-3.477a.208.208,0,0,1,.076-.121,2.85,2.85,0,0,0-4.342-3.553,4.841,4.841,0,0,1-6.6-.243l-.03-.031a2.832,2.832,0,0,0-4.009,0l-.076.031a4.868,4.868,0,0,1-6.6.243,2.753,2.753,0,0,0-1.822-.7,2.845,2.845,0,0,0-2.505,4.251.309.309,0,0,1,.06.121Z" transform="translate(2389.434 -17184.258)" fill="#f4136b"/>
    <path id="Path_43340" data-name="Path 43340" d="M396.545,254.132c-.031,1.746.562,3.006,1.7,3.006,1.108,0,1.64-1.124,1.64-3.006,0-1.7-.441-3.006-1.64-3.006S396.545,252.462,396.545,254.132Z" transform="translate(2297.618 -17327.941)" fill="#f4136b"/>
    <path id="Path_43341" data-name="Path 43341" d="M311.045,217.154c1.108,0,1.64-1.124,1.64-3.006,0-1.7-.456-3.006-1.67-3.006-1.154,0-1.7,1.336-1.7,3.006C309.313,215.894,309.906,217.154,311.045,217.154Z" transform="translate(2369.711 -17294.895)" fill="#f4136b"/>
    <path id="Path_43342" data-name="Path 43342" d="M245.24,184h.091a21.355,21.355,0,0,1,10.719-2.885H279.51a4.946,4.946,0,0,1,.668.061l.289-.031a17.182,17.182,0,0,0,2.353-8.9c-.577-10.052-11.433-18.189-11.433-18.189a1.923,1.923,0,0,1-.425-.562,3.311,3.311,0,0,1-.289-.622h-18.1a3.251,3.251,0,0,1-.289.622,2.187,2.187,0,0,1-.425.562s-10.842,8.138-11.433,18.189c0,0-.364,7.349,4.813,11.753Zm28.514-11.252c0,3.492-2.216,5.314-4.616,5.314-2.52,0-4.525-1.9-4.54-5.026,0-2.976,1.822-5.239,4.676-5.239s4.48,2.1,4.48,4.95Zm-5.891-14.682,1.777,5.375-2.414-1.215-8.852,15.9h-3.113l9.5-17.127-2.293-1.154Zm-13.711,2.793c2.87,0,4.494,2.111,4.494,4.95,0,3.492-2.2,5.314-4.616,5.314-2.536,0-4.54-1.9-4.54-5.026-.014-2.976,1.823-5.238,4.662-5.238Z" transform="translate(2426.648 -17246.734)" fill="#f4136b"/>
    <path id="Path_43344" data-name="Path 43344" d="M286.783,276.331,276.716,286.4a5.484,5.484,0,0,1-1.457,5.436,5.545,5.545,0,0,1-3.963,1.64h-9.915a1.518,1.518,0,1,1,0-3.037H271.3a2.575,2.575,0,0,0,1.822-.759,2.578,2.578,0,0,0-1.822-4.4H247.837a18.328,18.328,0,0,0-13.058,5.405l-4.3,4.3,9.869,9.87,1.76-1.746a6.009,6.009,0,0,1,4.266-1.777H265.8a13.391,13.391,0,0,0,9.535-3.948l16.247-16.247a3.418,3.418,0,0,0,0-4.813,3.373,3.373,0,0,0-4.8.016Z" transform="translate(2434.863 -17347.936)" fill="#f3f8ff" stroke="#000" stroke-width="2"/>
  </g>
</svg>
