<svg width="26" height="26" viewBox="0 0 26 26" fill="none" xmlns="http://www.w3.org/2000/svg">
<g clip-path="url(#clip0_204_10)">
<path d="M5.12127 26H20.8788C21.5315 26 22.0607 25.4709 22.0607 24.8182V11.4242C22.0607 10.7716 21.5315 10.2424 20.8788 10.2424H19.697V6.69697C19.697 3.00426 16.6928 0 13.0001 0C9.30735 0 6.30309 3.00426 6.30309 6.69697V10.2424H5.12127C4.46859 10.2424 3.93945 10.7716 3.93945 11.4242V24.8182C3.93945 25.4709 4.46859 26 5.12127 26ZM14.1819 18.514V20.0909C14.1819 20.7436 13.6527 21.2727 13.0001 21.2727C12.3474 21.2727 11.8182 20.7436 11.8182 20.0909V18.514C11.3402 18.1544 11.0304 17.5825 11.0304 16.9394C11.0304 15.8533 11.914 14.9697 13.0001 14.9697C14.0861 14.9697 14.9698 15.8533 14.9698 16.9394C14.9698 17.5825 14.66 18.1544 14.1819 18.514ZM8.66672 6.69697C8.66672 4.30757 10.6107 2.36364 13.0001 2.36364C15.3895 2.36364 17.3334 4.30757 17.3334 6.69697V10.2424H8.66672V6.69697Z" fill="#F4136B"/>
</g>
<defs>
<clipPath id="clip0_204_10">
<rect width="26" height="26" fill="white"/>
</clipPath>
</defs>
</svg>
