<svg xmlns="http://www.w3.org/2000/svg" width="73.484" height="73.832" viewBox="0 0 73.484 73.832">
  <g id="Group_1946" data-name="Group 1946" transform="translate(0 -0.001)">
    <path id="Path_42353" data-name="Path 42353" d="M18.166,33.887,12.574,17.775a3.858,3.858,0,0,0-4.4-2.864,3.713,3.713,0,0,0-2.815,4.58l5.753,17.766Z" transform="translate(-1.536 0.772)" fill="#d4e3f8"/>
    <path id="Path_42354" data-name="Path 42354" d="M48.29,33.887l5.593-16.112a3.858,3.858,0,0,1,4.4-2.864,3.713,3.713,0,0,1,2.815,4.58L55.34,37.257Z" transform="translate(8.564 0.772)" fill="#d4e3f8"/>
    <path id="Path_42355" data-name="Path 42355" d="M30.162,39.63l-10.914-6.4a3.7,3.7,0,0,0-4.692.838l-3.983-12.3a3.858,3.858,0,0,0-4.4-2.864,3.713,3.713,0,0,0-2.815,4.58L8.734,43.529a4.874,4.874,0,0,0,1.494,2.42l8.346,7.42a4.938,4.938,0,0,1,1.654,3.692v3.951H35.044V48.151a9.877,9.877,0,0,0-4.882-8.522Z" transform="translate(-2.006 1.71)" fill="#f3f8ff"/>
    <path id="Path_42356" data-name="Path 42356" d="M63.865,18.911a3.858,3.858,0,0,0-4.4,2.864l-3.988,12.3a3.7,3.7,0,0,0-4.692-.838l-10.914,6.4A9.877,9.877,0,0,0,35,48.151v12.86H49.815V57.06a4.938,4.938,0,0,1,1.654-3.692l8.346-7.42a4.874,4.874,0,0,0,1.494-2.42L66.68,23.491a3.712,3.712,0,0,0-2.815-4.58Z" transform="translate(5.446 1.71)" fill="#f3f8ff"/>
    <path id="Path_42357" data-name="Path 42357" d="M34,53v9.877H51.285V53H34Z" transform="translate(5.211 9.722)" fill="#f4136b"/>
    <path id="Path_42358" data-name="Path 42358" d="M33.285,53H16v9.877H33.285Z" transform="translate(0.989 9.722)" fill="#f4136b"/>
    <path id="Path_42359" data-name="Path 42359" d="M52.365,22.164l-.877.877L35.771,38.757,20.055,23.04l-.877-.877A11.11,11.11,0,1,1,34.9,6.458l.875.878.877-.877A11.11,11.11,0,1,1,52.367,22.166Z" transform="translate(0.971 -1.963)" fill="#f4136b"/>
    <path id="Path_42360" data-name="Path 42360" d="M48.828,6.459a10.988,10.988,0,0,0-9.1-3.184,11.1,11.1,0,0,1,6.627,18.89l-.877.877L31,37.522l1.235,1.235L47.951,23.04l.877-.877A11.112,11.112,0,0,0,48.828,6.459Z" transform="translate(4.508 -1.963)" fill="#f4136b"/>
    <path id="Path_42361" data-name="Path 42361" d="M35.877,24.815V19.877h4.938V14.938H35.877V10H30.938v4.938H26v4.938h4.938v4.938Z" transform="translate(3.334 -0.367)" fill="#f1f2f2"/>
    <path id="Path_42362" data-name="Path 42362" d="M52.464,34.077l-8.252,4.568A1.069,1.069,0,1,0,45.281,40.5l7.183-3.951a3.7,3.7,0,0,0,1.628-4.456A3.668,3.668,0,0,1,52.464,34.077Z" transform="translate(7.482 4.815)" fill="#9e9e9e"/>
    <path id="Path_42363" data-name="Path 42363" d="M13.557,34.077l8.252,4.568A1.069,1.069,0,1,1,20.74,40.5l-7.183-3.951a3.7,3.7,0,0,1-1.628-4.456,3.668,3.668,0,0,0,1.628,1.987Z" transform="translate(-0.018 4.815)" fill="#9e9e9e"/>
    <g id="Group_1939" data-name="Group 1939" transform="translate(0 0.001)">
      <path id="Path_42364" data-name="Path 42364" d="M41.05,13.938h-3.7v-3.7A1.235,1.235,0,0,0,36.112,9H31.173a1.235,1.235,0,0,0-1.235,1.235v3.7h-3.7A1.235,1.235,0,0,0,25,15.173v4.938a1.235,1.235,0,0,0,1.235,1.235h3.7v3.7a1.235,1.235,0,0,0,1.235,1.235h4.938a1.235,1.235,0,0,0,1.235-1.235v-3.7h3.7a1.235,1.235,0,0,0,1.235-1.235V15.173A1.235,1.235,0,0,0,41.05,13.938Zm-1.235,4.938h-3.7a1.235,1.235,0,0,0-1.235,1.235v3.7H32.408v-3.7a1.235,1.235,0,0,0-1.235-1.235h-3.7V16.408h3.7a1.235,1.235,0,0,0,1.235-1.235v-3.7h2.469v3.7a1.235,1.235,0,0,0,1.235,1.235h3.7Z" transform="translate(3.1 -0.603)" fill="#231f20"/>
      <path id="Path_42365" data-name="Path 42365" d="M66,19.419a5.645,5.645,0,0,0,.037-.654,4.963,4.963,0,0,0-3.926-4.827,5.026,5.026,0,0,0-5.8,3.667l-5.432,15.63a2.013,2.013,0,0,0-.235.111l-10.914,6.4a11.133,11.133,0,0,0-5.494,9.581v11.63A1.235,1.235,0,0,0,33,62.186v9.877A1.235,1.235,0,0,0,34.235,73.3H51.519a1.235,1.235,0,0,0,1.235-1.235V62.186a1.235,1.235,0,0,0-1.235-1.235V58.235a3.752,3.752,0,0,1,1.235-2.766l8.346-7.42a6.088,6.088,0,0,0,1.877-3.025l5.358-20.038a4.883,4.883,0,0,0,.173-1.284A4.962,4.962,0,0,0,66,19.419Zm-7.334-1.086a2.609,2.609,0,0,1,2.938-1.975,2.469,2.469,0,0,1,1.963,2.408v.025a5.062,5.062,0,0,0-4.8,3.778L55.322,33.2a5.186,5.186,0,0,0-1.654-.469Zm-8.383,52.5H35.469V63.42H50.285ZM65.952,24.345,60.581,44.4a3.68,3.68,0,0,1-1.111,1.8l-8.358,7.42a6.242,6.242,0,0,0-2.062,4.617v2.716H36.7V49.321a8.707,8.707,0,0,1,4.272-7.457l10.9-6.383a2.469,2.469,0,0,1,3.383.9,2.543,2.543,0,0,1,.247,1.877,2.469,2.469,0,0,1-1.161,1.494l-7.074,4.087a1.235,1.235,0,0,0,1.235,2.136l7.074-4.087a4.874,4.874,0,0,0,2.309-3,4.947,4.947,0,0,0-.494-3.741l-.074-.111,3.815-11.766A2.609,2.609,0,0,1,64.075,21.3,2.469,2.469,0,0,1,66.038,23.7a2.127,2.127,0,0,1-.086.642Z" transform="translate(4.977 0.535)" fill="#231f20"/>
      <path id="Path_42366" data-name="Path 42366" d="M36.513,60.95V49.32a11.133,11.133,0,0,0-5.494-9.581L20.1,33.332c-.074-.037-.16-.062-.235-.1l-5.4-15.544a5.071,5.071,0,0,0-5.84-3.753,4.963,4.963,0,0,0-3.926,4.827,5.652,5.652,0,0,0,.037.654A4.962,4.962,0,0,0,2.24,23.7,5.458,5.458,0,0,0,2.4,24.986L7.771,45.012a6.069,6.069,0,0,0,1.877,3.037l8.334,7.42a3.719,3.719,0,0,1,1.247,2.766V60.95a1.235,1.235,0,0,0-1.235,1.235v9.877A1.235,1.235,0,0,0,19.228,73.3H36.513a1.235,1.235,0,0,0,1.235-1.235V62.185A1.235,1.235,0,0,0,36.513,60.95ZM7.178,18.764a2.469,2.469,0,0,1,1.951-2.408,2.668,2.668,0,0,1,2.988,2.062L17.08,32.727a5.186,5.186,0,0,0-1.654.469l-3.42-10.568a5.122,5.122,0,0,0-4.827-3.84ZM19.623,53.617,11.277,46.2a3.661,3.661,0,0,1-1.111-1.815L4.783,24.344a2.619,2.619,0,0,1-.074-.642A2.469,2.469,0,0,1,6.66,21.295a2.647,2.647,0,0,1,2.975,2.037l3.79,11.7-.074.111a4.947,4.947,0,0,0-.494,3.741,4.874,4.874,0,0,0,2.309,3l7.074,4.087a1.235,1.235,0,0,0,1.235-2.136L16.4,39.752a2.469,2.469,0,0,1-1.161-1.494,2.543,2.543,0,0,1,.247-1.877,2.469,2.469,0,0,1,3.371-.914l10.914,6.4a8.707,8.707,0,0,1,4.272,7.457V60.95H21.7V58.234a6.21,6.21,0,0,0-2.074-4.617ZM35.278,70.827H20.463V63.42H35.278Z" transform="translate(-2.24 0.536)" fill="#231f20"/>
      <path id="Path_42367" data-name="Path 42367" d="M53.471,5.82a12.339,12.339,0,0,0-17.466,0A12.345,12.345,0,0,0,18.54,23.272L35.133,39.865a1.235,1.235,0,0,0,1.746,0L53.472,23.272a12.354,12.354,0,0,0,0-17.451ZM36,37.246l-15.72-15.72A9.877,9.877,0,0,1,27.276,4.67a9.773,9.773,0,0,1,6.979,2.9l.877.877a1.235,1.235,0,0,0,1.746,0l.879-.879A9.874,9.874,0,1,1,51.725,21.523Z" transform="translate(0.738 -2.198)" fill="#231f20"/>
    </g>
  </g>
</svg>
