<svg xmlns="http://www.w3.org/2000/svg" width="75.641" height="74.815" viewBox="0 0 75.641 74.815">
  <g id="Group_5082" data-name="Group 5082" transform="translate(-558.793 -804.186)">
    <g id="Group_4556" data-name="Group 4556" transform="translate(-5 3)">
      <path id="Path_43349" data-name="Path 43349" d="M267.85,47.766a1.3,1.3,0,0,0,1.424-.449,5.123,5.123,0,0,1,7.837-.475,14.112,14.112,0,1,0,23.319,0,5.124,5.124,0,0,1,7.838.475,1.3,1.3,0,0,0,2.309-.808c-1.209-28.936-42.428-28.924-43.611.039a1.294,1.294,0,0,0,.885,1.218Zm20.92,18.573h0a11.592,11.592,0,0,1-9.582-17.983,2.547,2.547,0,0,0,2.668-1.386,7.7,7.7,0,0,1,13.827,0,2.549,2.549,0,0,0,2.668,1.386,11.592,11.592,0,0,1-9.581,17.983Z" transform="translate(322.482 776.369)" fill="#f4136b"/>
      <path id="Path_43351" data-name="Path 43351" d="M164.217,166.663a3.766,3.766,0,0,0-2.809.808,43.537,43.537,0,0,1-8.761,5.375,34.623,34.623,0,0,1-1.988-11.339h6.722a1.286,1.286,0,0,0,1.283-1.283v-3.848a5.13,5.13,0,0,0-5.131-5.131h-2.091a16.738,16.738,0,0,1-24.037,0h-2.732c-.818-6.525-6.2-16.962-15.29-22.858-5.182-3.643-7.965-4.092-9.735-4.079h0a7.688,7.688,0,1,0,4.528,13.9c12.411,6.5,14.719,22.716,10.672,34.093a43.284,43.284,0,0,1-7.67-4.836A3.844,3.844,0,0,0,102.4,173.5c14.025,11.668,41.7,17.486,63.775,0h0a3.868,3.868,0,0,0-1.962-6.837Zm-13.84,7.491a1.165,1.165,0,0,1-2.014,1.141,43.118,43.118,0,0,1-3.643-13.789h3.361a38.021,38.021,0,0,0,2.3,12.648Zm-8.235-12.647h0a45.311,45.311,0,0,0,3.463,13.866,41.9,41.9,0,0,1-23.769-.308,45.83,45.83,0,0,0,3.348-13.558ZM109,138.381h0a30.89,30.89,0,0,0-4.413-2.86,1.294,1.294,0,0,0-1.437.218,5.109,5.109,0,0,1-7.914-6.273c3.968-6.233,12.074.169,17.342,4.759,12.759,12.854,11.908,27.781,6.478,40.867a1.16,1.16,0,0,1-2.194-.718C121.015,163.1,120.38,147.06,109,138.38Z" transform="translate(471.829 691.463)" fill="#83a8db"/>
    </g>
    <text id="_" data-name="₹ " transform="translate(601 823)" fill="#f4136b" font-size="20" font-family="ArialMT, Arial"><tspan x="0" y="18">₹ </tspan></text>
  </g>
</svg>
