<svg xmlns="http://www.w3.org/2000/svg" width="64.73" height="64.228" viewBox="0 0 64.73 64.228">
  <g id="Group_4382" data-name="Group 4382" transform="translate(-974 -610.905)">
    <rect id="Rectangle_5938" data-name="Rectangle 5938" width="27" height="21" transform="translate(976 652.81)" fill="#d4e3f8"/>
    <rect id="Rectangle_5939" data-name="Rectangle 5939" width="27" height="21" transform="translate(1010 652.81)" fill="#d4e3f8"/>
    <g id="Group_4381" data-name="Group 4381" transform="translate(975 611.905)">
      <path id="Path_43215" data-name="Path 43215" d="M398.794,350h-.509a9.856,9.856,0,0,1-1.966,1.96h2.475a3.925,3.925,0,0,1,3.921,3.921v15.682h-3.921v-6.371a.98.98,0,1,0-1.96,0v6.371H384.091v-6.371a.98.98,0,1,0-1.96,0v6.371H378.21V355.881a3.925,3.925,0,0,1,3.921-3.921h2.475A9.856,9.856,0,0,1,382.64,350h-.509a5.888,5.888,0,0,0-5.881,5.881v16.663a.98.98,0,0,0,.98.98h26.464a.98.98,0,0,0,.98-.98V355.881A5.888,5.888,0,0,0,398.794,350Z" transform="translate(-341.945 -310.795)" fill="#050402" stroke="#050402" stroke-width="1"/>
      <path id="Path_43216" data-name="Path 43216" d="M92.544,350h-.509a9.854,9.854,0,0,1-1.966,1.96h2.475a3.925,3.925,0,0,1,3.921,3.921v15.682H92.544v-6.371a.98.98,0,1,0-1.96,0v6.371H77.841v-6.371a.98.98,0,1,0-1.96,0v6.371H71.96V355.881a3.925,3.925,0,0,1,3.921-3.921h2.475A9.855,9.855,0,0,1,76.39,350h-.509A5.888,5.888,0,0,0,70,355.881v16.663a.98.98,0,0,0,.98.98H97.444a.98.98,0,0,0,.98-.98V355.881A5.888,5.888,0,0,0,92.544,350Z" transform="translate(-70 -310.795)" fill="#050402" stroke="#050402" stroke-width="1"/>
      <path id="Path_43217" data-name="Path 43217" d="M134.722,243.648a7.842,7.842,0,0,0,7.841-7.841c0-.039-.005-.077-.006-.117a3.06,3.06,0,0,1-.8.117,3.1,3.1,0,0,1-.9-.133,3.206,3.206,0,0,1-2.23-2.679,5.2,5.2,0,0,0-.807-2.174q-.159-.245-.341-.473l-.025-.029q-.174-.214-.368-.414l-.041-.04q-.192-.193-.4-.372l-.048-.039q-.212-.177-.441-.338l-.047-.032q-.235-.161-.486-.307l-.04-.023q-.259-.147-.535-.275l-.027-.013q-.284-.131-.584-.239l-.012,0q-.307-.111-.629-.2a7.839,7.839,0,0,0,.921,15.624Z" transform="translate(-120.51 -202.481)" fill="#83a8db"/>
      <path id="Path_43218" data-name="Path 43218" d="M441.26,228.222l-.013,0q-.3.108-.582.239l-.027.012q-.275.127-.534.275l-.039.022q-.251.144-.487.307l-.046.031q-.23.161-.442.338l-.046.038q-.211.179-.4.372l-.04.039q-.2.2-.369.414l-.024.028h0q-.183.228-.343.473h0a5.225,5.225,0,0,0-.812,2.171,3.116,3.116,0,0,1-3.09,2.795,3.279,3.279,0,0,1-.49-.039,3.078,3.078,0,0,1-.344-.081c0,.048-.007.095-.007.144a7.841,7.841,0,1,0,8.764-7.782q-.32.087-.627.2Z" transform="translate(-392.447 -202.481)" fill="#83a8db"/>
      <path id="Path_43219" data-name="Path 43219" d="M110.3,30.07a2.045,2.045,0,0,0,.058.325c.008.031.02.056.029.084h0a1.54,1.54,0,0,0,.068.18c.014.029.029.053.045.079a1.184,1.184,0,0,0,.082.13c.017.024.036.044.055.066a1.084,1.084,0,0,0,.09.095c.021.019.042.036.063.053s.06.046.09.065.047.029.07.042.052.027.078.039.053.024.079.034l.051.017h0a1.3,1.3,0,0,0,.183.047,1.112,1.112,0,0,0,.844-.2,1.146,1.146,0,0,0,.182-.175l0,.009s.005-.01.009-.014h0a1.215,1.215,0,0,0,.176-.284c.008-.017.018-.033.025-.05h0a1.478,1.478,0,0,0,.1-.356c.515-3.97,4.366-6.964,8.958-6.964,4.24,0,7.952,2.621,8.826,6.231.261,1.077,1.066,1.065,1.224,1.05h0a1.143,1.143,0,0,0,1.011-1.217c.032-.527.049-1.054.049-1.565C132.731,12.9,119.612.7,102.862,0H99.868C83.121.7,70,12.9,70,27.787c0,.374.008.746.024,1.114.051,1.16.8,1.341,1.028,1.369.162.021.985.06,1.315-1.06,1.014-3.487,4.609-5.922,8.742-5.922a9.539,9.539,0,0,1,7.118,3.021,7.634,7.634,0,0,1,1.223,1.834,7.207,7.207,0,0,1,.278.679,6.977,6.977,0,0,1,.341,1.442,1.265,1.265,0,0,0,.851,1.049,1.146,1.146,0,0,0,.333.05,1.118,1.118,0,0,0,.222-.03c.021,0,.042,0,.063-.009a1.1,1.1,0,0,0,.287-.121,1.268,1.268,0,0,0,.571-.872,8.935,8.935,0,0,1,8.97-7.042c4.469,0,8.308,2.905,8.931,6.781ZM92.068,26.109a10.282,10.282,0,0,0-.778,1.347,9.48,9.48,0,0,0-1.172-1.933c.322-13.332,5.114-20.376,8.029-23.44.583-.055,1.169-.1,1.762-.126H101.2C99.838,3,92.336,9.544,92.068,26.108Zm9.467-24.151H102.8c.6.025,1.2.072,1.788.129,2.915,3.066,7.706,10.111,8.026,23.442h0a9.453,9.453,0,0,0-1.125,1.825,9.417,9.417,0,0,0-.831-1.412C110.344,9.5,102.889,3,101.536,1.957Z" transform="translate(-70.001 0.003)" fill="#f4136b" stroke="#1d1d1d" stroke-width="2"/>
    </g>
  </g>
</svg>
